<?xml version="1.0" encoding="UTF-8"?>
<svg id="Layer_1" data-name="Layer 1" xmlns="http://www.w3.org/2000/svg" viewBox="0 0 336.99 329.31">
  <defs>
    <style>
      .cls-1 {
        fill: #0c554a;
      }

      .cls-2 {
        fill: #f67782;
      }
    </style>
  </defs>
  <path class="cls-1" d="M278.66,179.68h-35.38l-35.99-59.58-13.45,16.97v42.61h-29.79V34.87h29.79v62.48l47.17-62.48h35.58l-48.62,61.24,50.69,83.58Z"/>
  <path class="cls-2" d="M278.53,200.76h-130.83v33.64h30.25c-4.44,9.88-11.73,18.33-21.17,24.19-12.5,7.76-27.27,10.19-41.6,6.84-14.32-3.35-26.49-12.08-34.25-24.58-7.44-11.98-9.91-26.36-7.11-40.09h-39.44c-2.48,21.03,2.07,42.48,13.38,60.69,13.26,21.36,34.05,36.28,58.53,42.01,24.48,5.73,49.73,1.57,71.09-11.68,15.5-9.62,27.62-23.3,35.27-39.33l36.23,40.16,27.62-27.61-30.6-30.59h32.63v-33.64Z"/>
  <path class="cls-1" d="M147.33,163.75c-15.45,12-32.48,18-51.1,18-19.86,0-36.03-6.69-48.51-20.07-12.48-13.38-18.72-31.17-18.72-53.37v-1.86c0-21.38,6.38-39,19.14-52.86,12.75-13.86,28.92-20.79,48.51-20.79,17.79,0,33.03,5.04,45.72,15.1l-14.07,24.83c-10.21-8-20.89-12-32.07-12-10.34,0-18.96,4.24-25.86,12.72-6.9,8.48-10.34,19.27-10.34,32.38v2.48c0,14.48,3.48,25.79,10.45,33.93,6.96,8.14,15.89,12.2,26.79,12.2,8.14,0,15.38-2,21.72-6v-25.65h-26.27v-26.07h54.61v67.03Z"/>
  <g>
    <path class="cls-1" d="M307.06,26.83h-3.8v12.37h-3.17v-12.37h-3.82v-2.93h10.79v2.93Z"/>
    <path class="cls-1" d="M322.64,39.2h-3.1v-9.77l-3.61,6.32h-.06l-3.58-6.25v9.7h-3.06v-15.29h3.32l3.36,6.2,3.39-6.2h3.34v15.29Z"/>
  </g>
</svg>
