<?xml version="1.0" encoding="UTF-8"?>
<svg id="Layer_1" xmlns="http://www.w3.org/2000/svg" version="1.1" viewBox="0 0 453 128.2">
  <!-- Generator: Adobe Illustrator 30.0.0, SVG Export Plug-In . SVG Version: 2.1.1 Build 123)  -->
  <defs>
    <style>
      .st0 {
        fill: #0c554a;
      }

      .st1 {
        fill: #f67782;
      }
    </style>
  </defs>
  <g>
    <path class="st0" d="M279.7,69.5h-13l-13.2-21.8-4.9,6.2v15.6h-10.9V16.5h10.9v22.9l17.3-22.9h13l-17.8,22.4,18.6,30.6Z"/>
    <path class="st0" d="M319.5,49.6c0,6-1.8,11-5.5,14.8-3.6,3.9-8.2,5.8-13.8,5.8s-10.1-1.9-13.7-5.8c-3.6-3.9-5.4-8.8-5.4-14.8v-.8c0-6,1.8-11,5.5-14.8s8.2-5.8,13.8-5.8,10.1,1.9,13.7,5.8,5.4,8.8,5.4,14.8v.8ZM308.8,49.8v-.9c0-3.3-.8-6.1-2.3-8.2-1.6-2.1-3.6-3.2-6.2-3.2s-4.7,1-6.2,3.1c-1.5,2.1-2.3,4.8-2.3,8.1v.9c0,3.3.8,6.1,2.4,8.2s3.7,3.2,6.2,3.2,4.6-1,6.1-3.1c1.5-2.1,2.3-4.8,2.3-8.1Z"/>
    <path class="st0" d="M337.7,69.5h-10.8V14.8h10.8v54.7Z"/>
    <path class="st0" d="M357.9,69.5h-10.8V14.8h10.8v54.7Z"/>
    <path class="st0" d="M398,69.5h-10.5v-4.3c-2.6,3.3-6.1,5-10.5,5s-6.4-1.1-8.7-3.3c-2.3-2.2-3.4-5.2-3.4-8.9v-.5c0-4.3,1.3-7.5,3.8-9.7,2.5-2.2,6-3.3,10.3-3.3s5.9.5,8.6,1.6v-1.1c0-4.7-2.6-7.1-7.8-7.1s-6.3.7-9.8,2.1l-2-8.7c4.2-1.9,8.8-2.8,13.6-2.8s9.6,1.4,12.4,4.2c2.8,2.8,4.1,6.9,4.1,12.2v24.6ZM387.7,56.2v-3.5c-1.7-.9-3.7-1.3-6-1.3s-3.6.5-4.7,1.4c-1.1.9-1.7,2.3-1.7,4.1v.5c0,1.6.5,2.9,1.4,3.7,1,.9,2.2,1.3,3.8,1.3s3.8-.6,5.2-1.7c1.3-1.1,2-2.6,2-4.5Z"/>
    <path class="st0" d="M428.1,39.9h-.5c-3.4,0-6,1.1-7.8,3.2-1.8,2.1-2.8,5.3-2.8,9.5v17h-10.8V28.9h10.8v7.2c2.3-5.5,6-8.1,11.1-7.9v11.7Z"/>
  </g>
  <path class="st1" d="M324.8,77.2h-47.9v12.3h11.1c-1.6,3.6-4.3,6.7-7.8,8.9-4.6,2.8-10,3.7-15.2,2.5-5.2-1.2-9.7-4.4-12.5-9-2.7-4.4-3.6-9.7-2.6-14.7h-14.4c-.9,7.7.8,15.6,4.9,22.2,4.9,7.8,12.5,13.3,21.4,15.4,9,2.1,18.2.6,26-4.3,5.7-3.5,10.1-8.5,12.9-14.4l13.3,14.7,10.1-10.1-11.2-11.2h11.9v-12.3Z"/>
  <g>
    <path class="st0" d="M55.3,63.6c-5.7,4.4-11.9,6.6-18.7,6.6s-13.2-2.4-17.8-7.3c-4.6-4.9-6.9-11.4-6.9-19.5v-.7c0-7.8,2.3-14.3,7-19.4,4.7-5.1,10.6-7.6,17.8-7.6s12.1,1.8,16.7,5.5l-5.2,9.1c-3.7-2.9-7.7-4.4-11.7-4.4s-6.9,1.6-9.5,4.7c-2.5,3.1-3.8,7.1-3.8,11.9v.9c0,5.3,1.3,9.4,3.8,12.4,2.5,3,5.8,4.5,9.8,4.5s5.6-.7,8-2.2v-9.4h-9.6v-9.5h20v24.5Z"/>
    <path class="st0" d="M100.5,49.6c0,6-1.8,11-5.5,14.8-3.6,3.9-8.2,5.8-13.8,5.8s-10.1-1.9-13.7-5.8c-3.6-3.9-5.4-8.8-5.4-14.8v-.8c0-6,1.8-11,5.5-14.8s8.2-5.8,13.8-5.8,10.1,1.9,13.7,5.8,5.4,8.8,5.4,14.8v.8ZM89.8,49.8v-.9c0-3.3-.8-6.1-2.3-8.2-1.6-2.1-3.6-3.2-6.2-3.2s-4.7,1-6.2,3.1c-1.5,2.1-2.3,4.8-2.3,8.1v.9c0,3.3.8,6.1,2.4,8.2s3.7,3.2,6.2,3.2,4.6-1,6.1-3.1c1.5-2.1,2.3-4.8,2.3-8.1Z"/>
    <path class="st0" d="M118.7,69.5h-10.8V14.8h10.8v54.7Z"/>
    <path class="st0" d="M163.6,69.5h-10.8v-5.6c-2.9,4.2-6.6,6.4-11,6.4s-8-1.8-11-5.3c-3-3.5-4.5-8.6-4.5-15.1v-1.2c0-6.6,1.5-11.6,4.5-15.1,3-3.5,6.7-5.3,11.1-5.3s8,2,11,5.9V14.8h10.8v54.7ZM153,49.6v-.9c0-3.4-.8-6.1-2.3-8.1-1.5-2-3.4-3.1-5.7-3.1s-4.2,1-5.7,3.1c-1.5,2-2.3,4.8-2.3,8.1v.9c0,3.4.8,6.1,2.3,8.1,1.5,2,3.4,3.1,5.7,3.1s4.2-1,5.7-3.1c1.5-2,2.3-4.8,2.3-8.1Z"/>
    <path class="st0" d="M183.7,24.6h-11.2v-9.8h11.2v9.8ZM183.4,69.5h-10.8V28.9h10.8v40.6Z"/>
    <path class="st0" d="M225.7,69.5h-10.8v-24.5c0-2.3-.5-4.1-1.5-5.3-1-1.2-2.4-1.9-4.2-1.9s-3.3.6-4.4,1.9c-1.1,1.2-1.6,3-1.6,5.3v24.5h-10.8V28.9h10.8v5.5c3-4.1,6.5-6.2,10.5-6.2s6.8,1.2,8.9,3.7c2.1,2.5,3.1,5.8,3.1,10v27.6Z"/>
  </g>
  <g>
    <path class="st0" d="M435.3,13.5h-1.4v4.5h-1.2v-4.5h-1.4v-1.1h4v1.1Z"/>
    <path class="st0" d="M441,18h-1.1v-3.6l-1.3,2.3h0l-1.3-2.3v3.6h-1.1v-5.6h1.2l1.2,2.3,1.2-2.3h1.2v5.6Z"/>
  </g>
</svg>