<?xml version="1.0" encoding="UTF-8"?>
<svg id="Layer_1" data-name="Layer 1" xmlns="http://www.w3.org/2000/svg" viewBox="0 0 20.96 10.39">
  <defs>
    <style>
      .cls-1 {
        fill: #f67782;
      }
    </style>
  </defs>
  <path class="cls-1" d="M19.83,1.18h-10.15v2.61h2.35c-.34.77-.91,1.42-1.64,1.88-.97.6-2.12.79-3.23.53-1.11-.26-2.05-.94-2.66-1.91-.58-.93-.77-2.05-.55-3.11H.9c-.19,1.63.16,3.3,1.04,4.71,1.03,1.66,2.64,2.81,4.54,3.26,1.9.44,3.86.12,5.51-.91,1.2-.75,2.14-1.81,2.73-3.05l2.81,3.12,2.14-2.14-2.37-2.37h2.53V1.18Z"/>
</svg>